<svg id="visual" viewBox="0 0 675 900" width="675" height="900" xmlns="http://www.w3.org/2000/svg" xmlns:xlink="http://www.w3.org/1999/xlink" version="1.1"><rect x="0" y="0" width="675" height="900" fill="#FFCBCB"></rect><path d="M0 506L22.5 503.2C45 500.3 90 494.7 135 503.3C180 512 225 535 270 542.7C315 550.3 360 542.7 405 536.8C450 531 495 527 540 520.5C585 514 630 505 652.5 500.5L675 496L675 901L652.5 901C630 901 585 901 540 901C495 901 450 901 405 901C360 901 315 901 270 901C225 901 180 901 135 901C90 901 45 901 22.5 901L0 901Z" fill="#d8a2a1"></path><path d="M0 652L22.5 659.8C45 667.7 90 683.3 135 686.5C180 689.7 225 680.3 270 682.5C315 684.7 360 698.3 405 696.8C450 695.3 495 678.7 540 677C585 675.3 630 688.7 652.5 695.3L675 702L675 901L652.5 901C630 901 585 901 540 901C495 901 450 901 405 901C360 901 315 901 270 901C225 901 180 901 135 901C90 901 45 901 22.5 901L0 901Z" fill="#d8a2a1"></path></svg>